# xmcd
#
# Track frame offsets:
#	150
#	15404
#	31051
#	48822
#	65684
#	77354
#	90733
#	114805
#	131412
#	146313
#	170282
#	185452
#	201184
#
# Disc length: 2838 seconds
#
# Revision: 3
# Processed by: cddbd v1.5.2PL0 Copyright (c) Steve Scherf et al.
# Submitted via: audiograbber 1.83.01
#
DISCID=950b140d
DTITLE=G2 - Where The Tall Grass Grows
DYEAR=2007
DGENRE=Bluegrass
TTITLE0=All I Need
TTITLE1=Where The Tall Grass Grows
TTITLE2=What Would I Say
TTITLE3=Sleepy Hollow
TTITLE4=Going Back To Georgia
TTITLE5=Why Did You Force Me To Roam
TTITLE6=When Tears Come Falling
TTITLE7=Take Me Back
TTITLE8=I'll Stay Around
TTITLE9=When You Let Someone Go
TTITLE10=I'll See You Again Someday
TTITLE11=Crossroad Turnaround
TTITLE12=Riding On That Midnight Train
EXTD=
EXTT0=
EXTT1=
EXTT2=
EXTT3=
EXTT4=
EXTT5=
EXTT6=
EXTT7=
EXTT8=
EXTT9=
EXTT10=
EXTT11=
EXTT12=
PLAYORDER=
